<mxfile host="app.diagrams.net" modified="2024-02-21T18:43:18.754Z" agent="Mozilla/5.0 (Windows NT 10.0; Win64; x64) AppleWebKit/537.36 (KHTML, like Gecko) Chrome/121.0.0.0 Safari/537.36" version="23.1.4" etag="1vySZ4wlNO3EhXQ53Bt-" type="github">
  <diagram name="Page-1" id="WauILRI1FjW9VVHX4CrZ">
    <mxGraphModel>
      <root>
        <mxCell id="0" />
        <mxCell id="1" parent="0" />
      </root>
    </mxGraphModel>
  </diagram>
</mxfile>
